HIERARCHY
ROOT hip
{
  OFFSET -195.526 78.0787 -54.0998
  CHANNELS 6 Xposition Yposition Zposition Zrotation Xrotation Yrotation
  JOINT abdomen
  {
    OFFSET 0 20.6881 -0.73152
    CHANNELS 3 Zrotation Xrotation Yrotation
    JOINT chest
    {
      OFFSET 0 11.7043 -0.48768
      CHANNELS 3 Zrotation Xrotation Yrotation
      JOINT neck
      {
        OFFSET 0 22.1894 -2.19456
        CHANNELS 3 Zrotation Xrotation Yrotation
        JOINT head
        {
          OFFSET -0.24384 7.07133 1.2192
          CHANNELS 3 Zrotation Xrotation Yrotation
          JOINT leftEye
          {
            OFFSET 4.14528 8.04674 8.04672
            CHANNELS 3 Zrotation Xrotation Yrotation
            End Site
            {
              OFFSET 1 0 0
            }
          }
          JOINT rightEye
          {
            OFFSET -3.6576 8.04674 8.04672
            CHANNELS 3 Zrotation Xrotation Yrotation
            End Site
            {
              OFFSET 1 0 0
            }
          }
        }
      }
      JOINT rCollar
      {
        OFFSET -2.68224 19.2634 -4.8768
        CHANNELS 3 Zrotation Xrotation Yrotation
        JOINT rShldr
        {
          OFFSET -8.77824 -1.95073 1.46304
          CHANNELS 3 Zrotation Xrotation Yrotation
          JOINT rForeArm
          {
            OFFSET -28.1742 -1.7115 0.48768
            CHANNELS 3 Zrotation Xrotation Yrotation
            JOINT rHand
            {
              OFFSET -22.5879 0.773209 7.07136
              CHANNELS 3 Zrotation Xrotation Yrotation
              JOINT rThumb1
              {
                OFFSET -1.2192 -0.487915 3.41376
                CHANNELS 3 Zrotation Xrotation Yrotation
                JOINT rThumb2
                {
                  OFFSET -3.37035 -0.52449 3.41376
                  CHANNELS 3 Zrotation Xrotation Yrotation
                  End Site
                  {
                    OFFSET -1.78271 -1.18214 1.43049
                  }
                }
              }
              JOINT rIndex1
              {
                OFFSET -7.75947 0.938293 5.60832
                CHANNELS 3 Zrotation Xrotation Yrotation
                JOINT rIndex2
                {
                  OFFSET -2.54057 -0.884171 1.56538
                  CHANNELS 3 Zrotation Xrotation Yrotation
                  End Site
                  {
                    OFFSET -1.62519 -0.234802 1.16502
                  }
                }
              }
              JOINT rMid1
              {
                OFFSET -8.24714 1.18213 3.41376
                CHANNELS 3 Zrotation Xrotation Yrotation
                JOINT rMid2
                {
                  OFFSET -3.10165 -0.590103 1.0647
                  CHANNELS 3 Zrotation Xrotation Yrotation
                  End Site
                  {
                    OFFSET -2.48547 -0.328903 0.83742
                  }
                }
              }
              JOINT rRing1
              {
                OFFSET -8.82822 0.546677 1.51678
                CHANNELS 3 Zrotation Xrotation Yrotation
                JOINT rRing2
                {
                  OFFSET -2.60934 -0.819778 -0.0198488
                  CHANNELS 3 Zrotation Xrotation Yrotation
                  End Site
                  {
                    OFFSET -2.33842 -0.294052 0.168128
                  }
                }
              }
              JOINT rPinky1
              {
                OFFSET -8.27202 -0.0477905 -0.4584
                CHANNELS 3 Zrotation Xrotation Yrotation
                JOINT rPinky2
                {
                  OFFSET -1.82734 -0.647385 -0.700984
                  CHANNELS 3 Zrotation Xrotation Yrotation
                  End Site
                  {
                    OFFSET -1.69225 -0.51767 -0.607171
                  }
                }
              }
            }
          }
        }
      }
      JOINT lCollar
      {
        OFFSET 2.68224 19.2634 -4.8768
        CHANNELS 3 Zrotation Xrotation Yrotation
        JOINT lShldr
        {
          OFFSET 8.77824 -1.95073 1.46304
          CHANNELS 3 Zrotation Xrotation Yrotation
          JOINT lForeArm
          {
            OFFSET 28.1742 -1.7115 0.48768
            CHANNELS 3 Zrotation Xrotation Yrotation
            JOINT lHand
            {
              OFFSET 22.5879 0.773209 7.07136
              CHANNELS 3 Zrotation Xrotation Yrotation
              JOINT lThumb1
              {
                OFFSET 1.2192 -0.487915 3.41376
                CHANNELS 3 Zrotation Xrotation Yrotation
                JOINT lThumb2
                {
                  OFFSET 3.37035 -0.52449 3.41376
                  CHANNELS 3 Zrotation Xrotation Yrotation
                  End Site
                  {
                    OFFSET 1.78271 -1.18214 1.43049
                  }
                }
              }
              JOINT lIndex1
              {
                OFFSET 7.75947 0.938293 5.60832
                CHANNELS 3 Zrotation Xrotation Yrotation
                JOINT lIndex2
                {
                  OFFSET 2.54057 -0.884171 1.56538
                  CHANNELS 3 Zrotation Xrotation Yrotation
                  End Site
                  {
                    OFFSET 1.62519 -0.234802 1.16502
                  }
                }
              }
              JOINT lMid1
              {
                OFFSET 8.24714 1.18213 3.41376
                CHANNELS 3 Zrotation Xrotation Yrotation
                JOINT lMid2
                {
                  OFFSET 3.10165 -0.590103 1.0647
                  CHANNELS 3 Zrotation Xrotation Yrotation
                  End Site
                  {
                    OFFSET 2.48547 -0.328903 0.83742
                  }
                }
              }
              JOINT lRing1
              {
                OFFSET 8.82822 0.546677 1.51678
                CHANNELS 3 Zrotation Xrotation Yrotation
                JOINT lRing2
                {
                  OFFSET 2.60934 -0.819778 -0.0198488
                  CHANNELS 3 Zrotation Xrotation Yrotation
                  End Site
                  {
                    OFFSET 2.33842 -0.294052 0.168128
                  }
                }
              }
              JOINT lPinky1
              {
                OFFSET 8.27202 -0.0477905 -0.4584
                CHANNELS 3 Zrotation Xrotation Yrotation
                JOINT lPinky2
                {
                  OFFSET 1.82734 -0.647385 -0.700984
                  CHANNELS 3 Zrotation Xrotation Yrotation
                  End Site
                  {
                    OFFSET 1.69225 -0.51767 -0.607171
                  }
                }
              }
            }
          }
        }
      }
    }
  }
  JOINT rButtock
  {
    OFFSET -8.77824 4.35084 1.2192
    CHANNELS 3 Zrotation Xrotation Yrotation
    JOINT rThigh
    {
      OFFSET 0 -1.70687 -2.19456
      CHANNELS 3 Zrotation Xrotation Yrotation
      JOINT rShin
      {
        OFFSET 0 -36.8199 0.73152
        CHANNELS 3 Zrotation Xrotation Yrotation
        JOINT rFoot
        {
          OFFSET 0.73152 -45.1104 -5.12064
          CHANNELS 3 Zrotation Xrotation Yrotation
          End Site
          {
            OFFSET -1.1221 -3.69964 12.103
          }
        }
      }
    }
  }
  JOINT lButtock
  {
    OFFSET 8.77824 4.35084 1.2192
    CHANNELS 3 Zrotation Xrotation Yrotation
    JOINT lThigh
    {
      OFFSET 0 -1.70687 -2.19456
      CHANNELS 3 Zrotation Xrotation Yrotation
      JOINT lShin
      {
        OFFSET 0 -36.8199 0.73152
        CHANNELS 3 Zrotation Xrotation Yrotation
        JOINT lFoot
        {
          OFFSET -0.73152 -45.1104 -5.12064
          CHANNELS 3 Zrotation Xrotation Yrotation
          End Site
          {
            OFFSET 1.1221 -3.69964 12.103
          }
        }
      }
    }
  }
}
MOTION
Frames:	4
Frame Time:	0.00833333
13.763 74.6339 -107.068 -12.7753 8.24274 47.3233 0.302722 44.7153 1.04629 -2.59113 0.304094 0.0569102 0.78657 19.3397 -2.33503 -1.80721 -54.2698 -6.27927 -0 0 0 -0 0 0 6.39434e-015 -3.75287e-013 -2.13047e-013 59.863 29.0664 17.6596 -23.0691 -17.4518 46.7864 -0.0153801 -3.53838 -0.497927 -2.97037e-010 2.4794e-011 6.71965e-010 -5.15546e-010 3.92385e-011 1.15827e-009 -2.9702e-010 2.47944e-011 6.71956e-010 7.73091 5.47488 0.417314 -2.97038e-010 2.4795e-011 6.71965e-010 2.90554 0.965183 0.102902 -2.97036e-010 2.47945e-011 6.71965e-010 10.2786 0.731801 0.0259123 -2.97046e-010 2.4796e-011 6.71972e-010 2.22167 -0.733487 -0.20892 6.32851e-015 -3.75324e-013 -2.13147e-013 -39.5787 26.3238 -33.6249 24.2047 -19.4845 -50.2636 1.41045 -31.6596 4.97166 8.2308e-010 8.53758e-010 5.64275e-010 1.40357e-009 1.48706e-009 9.9513e-010 8.23075e-010 8.53757e-010 5.64281e-010 -7.73091 5.47488 -0.417314 8.2308e-010 8.53754e-010 5.64275e-010 -2.90554 0.965183 -0.102902 8.23077e-010 8.53753e-010 5.64271e-010 -10.2786 0.731801 -0.0259123 8.23091e-010 8.53757e-010 5.64259e-010 -2.22167 -0.733487 0.20892 -2.03217e-016 0 -3.88251e-019 -15.1642 -55.7819 -17.2709 -3.8619 77.4188 4.25638 -8.33275 -12.987 -22.5685 2.03217e-016 0 3.88251e-019 9.2248 -49.5007 28.3356 0.955471 59.1024 -1.52638 7.91367 -16.8546 19.978 
13.5864 74.6283 -106.904 -12.8833 8.34398 47.2661 0.346474 44.847 0.904244 -2.57811 0.249095 0.0292754 0.76966 19.4255 -2.31823 -1.83339 -54.5243 -6.27219 -0 0 0 -0 0 0 3.58505e-013 -2.85427e-013 -3.77381e-013 59.7531 29.0629 17.7132 -23.1059 -17.5136 46.8934 -0.0161641 -3.62958 -0.510793 -1.68285e-009 -1.45196e-010 9.36729e-010 -2.90963e-009 -2.55239e-010 1.61063e-009 -1.68284e-009 -1.45195e-010 9.36719e-010 7.73091 5.47488 0.417314 -1.68285e-009 -1.45195e-010 9.36728e-010 2.90554 0.965183 0.102902 -1.68285e-009 -1.45196e-010 9.36729e-010 10.2786 0.731801 0.0259123 -1.68286e-009 -1.45194e-010 9.36735e-010 2.22167 -0.733487 -0.20892 3.58445e-013 -2.85458e-013 -3.77476e-013 -39.5277 26.1678 -33.6812 24.2533 -19.5781 -50.4197 1.41437 -31.6977 4.97909 1.23987e-009 2.28229e-009 1.88676e-009 2.09048e-009 3.94952e-009 3.28805e-009 1.23987e-009 2.28229e-009 1.88677e-009 -7.73091 5.47488 -0.417314 1.23987e-009 2.28228e-009 1.88676e-009 -2.90554 0.965183 -0.102902 1.23987e-009 2.28228e-009 1.88676e-009 -10.2786 0.731801 -0.0259123 1.23988e-009 2.28229e-009 1.88675e-009 -2.22167 -0.733487 0.20892 -2.03217e-016 0 -3.88251e-019 -15.5971 -56.7858 -17.4968 -4.01447 77.7981 4.39993 -7.7401 -12.695 -21.3162 2.03217e-016 0 3.88251e-019 9.14848 -49.4704 28.2437 0.949829 59.1181 -1.55143 7.96457 -16.9578 20.0247 
13.402 74.6252 -106.729 -12.9874 8.43647 47.1959 0.431679 45.0206 0.729915 -2.55706 0.196592 -0.00274501 0.756096 19.542 -2.299 -1.83106 -54.8274 -6.24698 -0 0 0 -0 0 0 7.78651e-013 -9.96803e-014 -5.27739e-013 59.6236 29.0517 17.7898 -23.1448 -17.5792 47.0071 -0.0171479 -3.73939 -0.526289 -3.11496e-009 -4.88747e-010 1.06399e-009 -5.38252e-009 -8.49358e-010 1.82495e-009 -3.11495e-009 -4.88745e-010 1.06398e-009 7.73091 5.47488 0.417314 -3.11496e-009 -4.88746e-010 1.06399e-009 2.90554 0.965183 0.102902 -3.11496e-009 -4.88747e-010 1.06399e-009 10.2786 0.731801 0.0259123 -3.11496e-009 -4.88744e-010 1.064e-009 2.22167 -0.733487 -0.20892 7.78589e-013 -9.97009e-014 -5.27845e-013 -39.4795 26.0736 -33.7171 24.308 -19.6842 -50.5971 1.41432 -31.6972 4.97899 1.6402e-009 3.98235e-009 3.5011e-009 2.74218e-009 6.87774e-009 6.08439e-009 1.6402e-009 3.98235e-009 3.50112e-009 -7.73091 5.47488 -0.417314 1.6402e-009 3.98235e-009 3.5011e-009 -2.90554 0.965183 -0.102902 1.6402e-009 3.98235e-009 3.5011e-009 -10.2786 0.731801 -0.0259123 1.64022e-009 3.98235e-009 3.50109e-009 -2.22167 -0.733487 0.20892 -2.03217e-016 0 -3.88251e-019 -16.0029 -57.782 -17.702 -4.10243 78.0095 4.48597 -7.26092 -12.6452 -20.1042 2.03217e-016 0 3.88251e-019 9.0419 -49.4258 28.1219 0.943256 59.1273 -1.5795 8.02654 -17.0621 20.0958 
13.2074 74.6316 -106.543 -13.0848 8.51813 47.1166 0.549912 45.2266 0.544514 -2.528 0.153492 -0.0346594 0.748982 19.6647 -2.27971 -1.81141 -55.0899 -6.20854 -0 0 0 -0 0 0 1.12595e-012 9.01901e-014 -6.32071e-013 59.4891 29.0211 17.8788 -23.1807 -17.64 47.1127 -0.018093 -3.83954 -0.540428 -4.20005e-009 -8.64977e-010 1.05886e-009 -7.25548e-009 -1.49968e-009 1.81167e-009 -4.20005e-009 -8.64975e-010 1.05884e-009 7.73091 5.47488 0.417314 -4.20005e-009 -8.64977e-010 1.05885e-009 2.90554 0.965183 0.102902 -4.20005e-009 -8.64977e-010 1.05885e-009 10.2786 0.731801 0.0259123 -4.20005e-009 -8.64974e-010 1.05886e-009 2.22167 -0.733487 -0.20892 1.12588e-012 9.01817e-014 -6.32196e-013 -39.4369 26.0375 -33.7489 24.3593 -19.7842 -50.7656 1.41328 -31.6872 4.97704 1.92061e-009 5.45073e-009 4.92826e-009 3.19153e-009 9.40537e-009 8.55488e-009 1.92061e-009 5.45072e-009 4.92828e-009 -7.73091 5.47488 -0.417314 1.92061e-009 5.45072e-009 4.92826e-009 -2.90554 0.965183 -0.102902 1.92061e-009 5.45072e-009 4.92826e-009 -10.2786 0.731801 -0.0259123 1.92063e-009 5.45073e-009 4.92825e-009 -2.22167 -0.733487 0.20892 -2.03217e-016 0 -3.88251e-019 -16.3596 -58.7161 -17.8775 -4.08563 77.9727 4.47359 -6.9259 -12.7801 -19.1109 2.03217e-016 0 3.88251e-019 8.92052 -49.3515 27.9914 0.935312 59.1186 -1.60877 8.08869 -17.1767 20.1554 
